<svg width="610" height="486" viewBox="0 0 610 486" fill="none" xmlns="http://www.w3.org/2000/svg">
<path d="M298.373 54.6239C312.926 54.3931 328.807 54.7579 343.464 54.7561L452.55 54.7433L513.758 54.7171C521.684 54.7672 529.833 54.4482 537.693 54.8056C547.058 55.2308 553.685 63.6024 553.664 72.6973C553.652 78.5666 553.691 84.6639 553.685 90.6373L553.691 124.931L553.73 143.594C553.739 146.721 553.897 152.54 553.408 155.447C552.851 158.882 551.276 162.071 548.887 164.601C544.55 169.187 540.288 169.627 534.405 169.778C517.609 170.262 499.289 169.916 482.368 169.92L388.285 169.948L328.265 169.921C317.492 169.921 306.579 170.124 295.836 169.713C287.219 169.383 280.612 162.194 280.035 153.768C279.669 148.438 279.708 143.082 279.716 137.689L279.722 112.477C279.686 102.99 279.699 93.5033 279.762 84.0168C279.79 79.6952 279.438 74.3331 280.087 70.1598C281.754 59.4434 288.787 55.5843 298.373 54.6239ZM308.547 83.6207C305.67 89.847 307.728 108.131 307.276 115.541C306.891 121.836 307.121 129.726 307.082 136.148C307.058 140.323 308.893 143.205 313.405 143.303C319.785 143.442 326.21 143.37 332.623 143.367L362.75 143.479C364.639 143.008 366.634 142.324 367.695 140.551C368.433 139.317 368.621 137.593 368.704 136.176C368.987 131.496 369.011 87.6957 368.353 85.6734C367.876 84.2098 366.67 82.8033 365.261 82.166C362.277 80.8149 319.437 81.4695 312.824 81.6323C310.975 82.0698 310.114 82.4066 308.547 83.6207ZM518.613 133.356C524.231 131.911 524.007 125.948 519.644 122.646C514.187 122.18 505.999 122.391 500.364 122.386L466.742 122.374L421.725 122.374C413.46 122.376 403.797 122.167 395.618 122.558C393.051 122.824 391.556 124.891 391.32 127.361C390.882 131.974 394.209 133.292 398.201 133.347C403.925 133.426 409.668 133.408 415.402 133.407L447.444 133.422L491.732 133.41C500.477 133.414 509.913 133.564 518.613 133.356ZM472.02 102.875L504.203 102.865C508.76 102.86 514.276 103.009 518.834 102.62C524.38 102.147 524.243 92.4057 518.399 92.1135C514.878 91.7809 511.417 91.8643 507.911 91.8655L491.518 91.8812C475.621 91.8994 459.591 91.7017 443.712 91.8681L411.643 91.8976C406.529 91.8934 401.388 91.8285 396.277 91.9869C395.091 92.0239 393.629 92.5575 392.735 93.3765C390.781 95.1674 390.778 99.832 392.655 101.638C393.566 102.516 396.268 102.623 397.486 102.746C406.016 102.977 414.705 102.885 423.238 102.884L472.02 102.875Z" fill="#FEFEFE"/>
<path d="M297.275 329.789C303.555 329.977 310.302 329.813 316.622 329.798L353.064 329.759L471.782 329.852L514.416 329.813C521.895 329.78 529.452 329.506 536.922 329.813C542.122 329.959 546.224 331.957 549.697 335.822C555.124 341.865 553.706 352.859 553.691 360.593L553.682 389.449L553.706 414.139C553.724 417.814 553.965 425.563 553.557 428.94C553.182 432.063 552.032 435.044 550.206 437.605C547.323 441.62 543.293 443.683 538.492 444.478C532.481 444.684 525.925 444.547 519.858 444.547L486.272 444.544L385.509 444.538L325.027 444.532L306.415 444.565C302.977 444.574 299.561 444.63 296.126 444.452C287.366 443.996 280.365 436.819 279.936 428.088C279.65 422.275 279.689 416.504 279.7 410.703L279.721 383.255L279.718 359.08C279.745 348.085 278.147 337.091 289.841 331.445C292.575 330.126 294.269 329.986 297.275 329.789ZM361.839 418.025C370.438 416.992 368.671 409.374 368.731 402.701C368.794 395.655 368.797 388.606 368.731 381.561C368.728 374.818 368.874 368.026 368.597 361.287C368.442 357.46 364.752 356.415 361.571 356.302C353.797 356.028 345.987 356.239 338.204 356.177C330.925 356.379 321.027 355.763 314.102 356.32C306.885 356.409 307.013 361.796 307.07 367.442C307.21 382.064 307.007 396.721 307.111 411.346C307.15 416.563 309.932 417.686 314.454 417.918C320.11 418.21 325.692 418.088 331.297 418.091L361.839 418.025ZM391.603 369.679C389.926 378.997 396.384 377.469 403.335 377.528L418.127 377.576L468.967 377.555L502.508 377.558C505.606 377.564 516.275 377.764 518.827 377.299C521.547 377.061 522.214 375.054 523.009 372.746C522.625 370.768 522.506 370.095 521.714 368.27C521.014 367.743 520.221 367.174 519.554 366.62C510.395 366.367 500.751 366.549 491.55 366.543L438.005 366.534L408.896 366.519C406.234 366.516 397.417 366.316 395.162 366.578C393.405 367.555 392.86 367.981 391.603 369.679ZM392.86 406.4C396.658 408.612 405.721 407.853 410.526 407.814H483.505L505.835 407.784C509.746 407.772 515.771 407.88 519.518 407.448C522.512 404.955 524.457 401.718 521.305 398.252C520.963 397.88 520.609 397.522 520.242 397.174C514.443 396.358 509.797 397.052 504.313 396.817L430.321 396.867L408.658 396.852C405.307 396.846 395.201 396.108 392.61 398.282C390.504 400.054 391.168 404.08 392.86 406.4Z" fill="#FEFEFE"/>
<path d="M141.435 228.227C148.347 226.769 159.123 229.309 165.866 231.489C183.919 237.326 193.762 250.733 205.001 264.997L221.353 285.358C223.668 288.27 225.994 291.225 228.349 294.083C230.728 296.971 232.318 301.225 236.776 299.486C240.813 297.913 244.126 295.28 247.641 292.834C257.847 285.734 268.177 278.829 278.511 271.92C284.611 267.934 290.58 263.155 296.992 259.741C303.612 256.217 313.197 257.316 318.809 262.291C322.883 265.906 325.93 271.67 326.201 277.132C326.449 281.58 324.799 288.145 321.689 291.428C317.573 295.771 311.407 299.646 306.43 303.062C301.548 306.403 296.693 309.783 291.864 313.205L263.927 332.815C253.761 339.899 246.277 346.999 233.297 347.156C222.581 347.288 215.242 344.539 207.415 337.311C204.837 334.727 188.486 316.168 186.241 316.359C184.887 318.789 185.439 345.656 185.436 350.459L185.454 410C185.468 415.229 185.929 426.388 184.901 431.513C184.427 433.877 174.808 433.195 172.273 433.18L154.736 433.171L113.446 433.177C108.156 433.183 94.3311 433.722 88.6546 432.564C88.0554 432.442 87.4376 429.172 87.4043 428.27C87.1276 420.822 87.2375 413.291 87.2387 405.822L87.2515 360.593L87.2565 312.63C87.253 302.416 86.6418 288.499 88.4068 278.897C90.2833 268.142 94.8687 258.043 101.73 249.552C111.206 237.924 126.482 229.783 141.435 228.227Z" fill="#FEFEFE"/>
<path d="M297.038 184.155C300.89 183.751 308.45 184.993 312.697 185.31C326.24 186.256 339.775 187.324 353.297 188.514L453.119 196.705L516.067 201.942C521.798 202.461 535.237 203.08 540.202 204.063C544.125 204.831 547.699 206.84 550.397 209.794C554.773 214.651 554.838 220.115 554.475 226.168C553.447 243.297 551.901 260.389 550.528 277.491L549.152 294.137C548.431 302.499 548.408 309.929 540.288 314.679C534.858 317.859 530.477 317.005 524.577 316.579L508.71 315.367C489.368 314.027 470.034 312.58 450.706 311.025L376.232 305.29L344.698 302.892C338.899 302.446 333.007 301.755 327.208 301.537C331.843 296.961 334.896 291.637 336.29 285.27C336.731 283.264 336.51 279.032 337.666 277.262C337.987 276.767 341.309 277.104 341.985 277.119C348.237 277.62 353.985 278.536 360.273 278.553C361.345 277.981 364.526 275.698 364.603 274.687C365.351 264.99 370.849 225.89 368.279 219.078C366.858 217.558 365.72 216.77 363.6 216.556C353.699 215.553 343.775 214.917 333.844 214.074C327.05 213.636 320.197 212.5 313.385 212.508C309.662 212.513 308.158 215.619 307.794 218.801C306.761 227.886 306.785 237.361 305.885 246.398C304.744 246.66 303.532 246.821 302.367 246.948C292.708 248.001 284.575 254.571 276.467 259.568C276.32 254.416 276.882 248.631 277.284 243.485L278.99 221.752C279.612 213.793 279.937 205.512 281.036 197.642C282.16 189.589 289.522 184.955 297.038 184.155ZM514.992 281.736C517.357 280.95 517.786 280.154 518.908 277.929C519.132 277.487 519.349 277.042 519.564 276.595C519.045 275.32 517.988 272.187 516.508 271.791C512.198 270.639 507.385 270.633 502.92 270.255C468.33 267.325 433.72 264.495 399.119 261.707C396.962 261.533 394.862 261.433 392.706 261.182C388.542 262.461 387.246 264.503 388.277 268.977C388.458 269.763 389.724 271.591 390.517 271.709C401.156 273.284 412.2 273.713 422.911 274.578L476.578 278.968L497.88 280.689C501.085 280.977 512.254 282.014 514.992 281.736ZM391.112 239.207C392.435 240.426 393.808 241.507 395.693 241.72C411.024 243.453 426.56 244.023 441.893 245.438L493.6 249.816C501.058 250.414 511.066 251.936 518.283 251.613C520.761 250.659 521.22 248.879 522.057 246.546C521.351 243.922 521.324 243.307 519.549 241.219C489.502 238.54 459.436 236.043 429.356 233.726L406.66 231.826C403.589 231.567 397.126 230.879 394.329 231.098C390.704 233.025 390.114 235.279 391.112 239.207Z" fill="#FEFEFE"/>
<path d="M153.946 119.003C180.153 118.44 201.87 139.19 202.497 165.389C203.124 191.589 182.424 213.353 156.221 214.043C129.928 214.736 108.068 193.953 107.439 167.663C106.81 141.373 127.65 119.569 153.946 119.003Z" fill="#FEFEFE"/>
</svg>
