<svg width="48" height="48" viewBox="0 0 48 48" fill="none" xmlns="http://www.w3.org/2000/svg">
<path d="M43.5008 17.4693C43.5008 25.1568 37.9339 27.3075 33.4601 29.0325C31.8833 29.64 30.3945 30.2137 29.2958 30.96C27.1601 32.4075 25.8101 35.0437 24.5051 37.5937C22.6414 41.235 20.712 45 16.4108 45C13.9901 45 11.7964 42.8175 10.0639 38.6887C8.33138 34.56 7.38076 29.1262 7.51201 24.1668C7.71451 16.545 10.2458 12.4143 12.3308 10.2918C15.1339 7.44183 18.9383 5.54808 23.3333 4.81683C27.4189 4.13808 31.6095 4.55808 35.1326 5.99808C40.4501 8.17496 43.5008 12.3562 43.5008 17.4693Z" fill="white"/>
</svg>
