<svg width="68" height="68" viewBox="0 0 68 68" fill="none" xmlns="http://www.w3.org/2000/svg">
<g clip-path="url(#clip0_3793_32)">
<path d="M65.9636 17.4246C65.5734 16.0253 64.828 14.7507 63.7997 13.7246C62.7714 12.6985 61.4951 11.9558 60.095 11.5686C54.8412 10.1641 33.7209 10.1641 33.7209 10.1641C33.7209 10.1641 12.6406 10.1304 7.33213 11.5686C5.93431 11.9577 4.66069 12.7012 3.63471 13.7272C2.60873 14.7532 1.86519 16.0268 1.47614 17.4246C0.478775 22.8031 -0.0125984 28.2632 0.00846171 33.7334C-0.00289916 39.1773 0.488414 44.6106 1.47614 49.9642C1.86701 51.3625 2.61097 52.6368 3.6365 53.6645C4.66204 54.6922 5.93469 55.4389 7.33213 55.8328C12.5859 57.2373 33.7209 57.2373 33.7209 57.2373C33.7209 57.2373 54.7886 57.2373 60.095 55.8328C61.4948 55.4408 62.77 54.695 63.7979 53.6671C64.8257 52.6392 65.5716 51.364 65.9636 49.9642C66.9301 44.6136 67.4018 39.1724 67.3681 33.7334C67.4018 28.2585 66.9407 22.8089 65.9636 17.4246ZM26.9742 43.8134V23.6091L44.5548 33.7334L26.9742 43.8134Z" fill="white"/>
</g>
<defs>
<clipPath id="clip0_3793_32">
<rect width="67.3828" height="67.3828" fill="white"/>
</clipPath>
</defs>
</svg>
